<svg width="22" height="22" fill="none" xmlns="http://www.w3.org/2000/svg"><rect x="3.438" y="7.563" width="15.125" height="11" rx="2.063" stroke="#000" stroke-width="1.375"/><path d="M5.665 3.82c-.852 2.2 1.243 3.742 5.679 3.742L10.32 5.141C8.955 2.027 6.28 2.237 5.665 3.82Z" stroke="#000" stroke-width="1.375"/><path d="M16.335 3.82c.852 2.2-1.243 3.743-5.679 3.743L11.68 5.14c1.364-3.114 4.094-2.768 4.655-1.32Z" stroke="#000" stroke-width="1.375"/><path d="M7.404 9.953h3.116v1.006H8.51v4.666H7.403V9.953Zm7.54 3.865c0 .221-.04.44-.121.658-.076.216-.2.41-.37.582a1.89 1.89 0 0 1-.651.408c-.262.106-.582.159-.96.159H11.2V9.953h3.336v1.006h-2.231v1.074h.56c.367 0 .682.045.944.136.268.09.485.217.65.378.167.156.288.343.364.56.08.216.12.453.12.71Zm-2.133.801c.308 0 .547-.06.719-.181.176-.121.264-.325.264-.613a.823.823 0 0 0-.075-.37.64.64 0 0 0-.204-.242.825.825 0 0 0-.318-.129 1.616 1.616 0 0 0-.393-.045h-.5v1.58h.507Z" fill="#000"/></svg>