<svg width="97" height="96" fill="none" xmlns="http://www.w3.org/2000/svg"><g id="icons8-ozon-96 2"><path id="Vector" d="M27.5 12h42c8.284 0 15 6.716 15 15v42c0 8.284-6.716 15-15 15h-42c-8.284 0-15-6.716-15-15V27c0-8.284 6.716-15 15-15Z" fill="#2962FF"/><path id="Vector_2" d="M43.498 52.174h-5.146l6.57-8.692a.44.44 0 0 0-.35-.7h-9.504c-.836 0-1.518.684-1.518 1.518s.684 1.518 1.518 1.518h4.27l-6.592 8.7a.432.432 0 0 0 .08.612.38.38 0 0 0 .27.088H43.49a1.521 1.521 0 0 0 0-3.038v-.008l.008.002Zm33.21-9.392c-.836 0-1.518.684-1.518 1.518v5.098l-8.208-6.514a.435.435 0 0 0-.708.342V53.7a1.518 1.518 0 0 0 3.036 0v-5.098l8.208 6.522a.44.44 0 0 0 .716-.342V44.3a1.523 1.523 0 0 0-1.526-1.518ZM54.99 52.46c-3.476 0-6.068-1.83-6.068-3.468s2.6-3.468 6.068-3.468c3.476 0 6.068 1.83 6.068 3.468s-2.586 3.468-6.068 3.468Zm0-9.974c-5.026 0-9.106 2.91-9.106 6.506s4.08 6.506 9.106 6.506 9.106-2.91 9.106-6.506-4.08-6.506-9.106-6.506Zm-29.896 9.982a3.473 3.473 0 1 1 3.468-3.476V49c0 1.91-1.55 3.46-3.468 3.468Zm0-9.982a6.516 6.516 0 0 0-6.514 6.506 6.516 6.516 0 0 0 6.506 6.514A6.516 6.516 0 0 0 31.6 49v-.008c-.008-3.594-2.918-6.506-6.506-6.506Z" fill="#fff"/></g></svg>