<svg width="96" height="96" fill="none" xmlns="http://www.w3.org/2000/svg"><g clip-path="url('#clip0_235_250')"><path d="M12.031 42.273c0-10.567 0-15.851 2.057-19.888a18.868 18.868 0 0 1 8.246-8.246c4.036-2.056 9.32-2.056 19.887-2.056h11.123c10.567 0 15.851 0 19.888 2.056a18.87 18.87 0 0 1 8.246 8.246c2.056 4.037 2.056 9.32 2.056 19.888v11.123c0 10.568 0 15.851-2.056 19.887a18.867 18.867 0 0 1-8.246 8.247c-4.037 2.056-9.32 2.056-19.888 2.056H42.221c-10.567 0-15.851 0-19.887-2.056a18.866 18.866 0 0 1-8.246-8.247c-2.057-4.036-2.057-9.32-2.057-19.887V42.273Z" fill="url('#paint0_linear_235_250')"/><path d="M31.72 60.955h-4.99l-7.431-26.24h4.541l5.517 20.504 5.967-20.505h3.978l5.93 20.505 5.516-20.505h4.541l-7.43 26.24h-4.992L37.313 41.8 31.72 60.955Zm40.868-13.608c2.29 1.2 3.678 3.374 3.678 6.11 0 2.137-.75 3.937-2.29 5.361-1.538 1.425-3.377 2.137-5.591 2.137H57.126v-26.24H67.56c2.14 0 3.978.711 5.442 2.098 1.501 1.387 2.252 3.112 2.252 5.173 0 2.287-.901 4.05-2.665 5.361Zm-5.029-8.584h-6.117v6.897h6.117c1.914 0 3.378-1.5 3.378-3.449 0-1.949-1.464-3.448-3.378-3.448Zm-6.117 18.143h6.943c1.989 0 3.565-1.612 3.565-3.673 0-2.062-1.576-3.674-3.565-3.674h-6.943v7.347Z" fill="#fff"/></g><defs><linearGradient id="paint0_linear_235_250" x1="16.499" y1="83.49" x2="83.444" y2="17.71" gradientUnits="userSpaceOnUse"><stop stop-color="#CB11AB"/><stop offset="1" stop-color="#481173"/></linearGradient><clipPath id="clip0_235_250"><path fill="#fff" transform="translate(12 12)" d="M0 0h72v72H0z"/></clipPath></defs></svg>