<svg width="97" height="96" fill="none" xmlns="http://www.w3.org/2000/svg"><g id="icons_WB-96"><path id="Vector" d="M27.5 12h42c8.284 0 15 6.716 15 15v42c0 8.284-6.716 15-15 15h-42c-8.284 0-15-6.716-15-15V27c0-8.284 6.716-15 15-15Z" fill="url('#paint0_linear_76_6170')"/><path id="Vector_2" d="M27.152 61 20.5 35h4.307l5.171 20.05L35.408 35h4.06l5.542 20.18L50.07 35h4.43l-6.652 26h-5.047l-5.307-19.403L32.2 61h-5.048Z" fill="#FEFEFE"/><path id="Vector_3" d="M76.5 53.625c0 2.074-.741 3.876-2.1 5.301C72.917 60.352 71.188 61 69.1 61H58.5V35h9.747c2.1 0 3.818.778 5.177 2.074 1.482 1.425 2.1 3.11 2.1 5.171 0 2.333-.865 4.005-2.47 5.301 2.21 1.167 3.446 3.37 3.446 6.08Zm-13.935-14.62v6.856h5.794c1.73 0 3.088-1.425 3.088-3.37 0-1.944-1.359-3.499-3.088-3.499h-5.794v.013Zm6.535 18.12c1.853 0 3.336-1.685 3.336-3.746s-1.483-3.63-3.336-3.63h-6.535v7.376H69.1Z" fill="#FEFEFE"/></g><defs><linearGradient id="paint0_linear_76_6170" x1="48.5" y1="12" x2="131.5" y2="12" gradientUnits="userSpaceOnUse"><stop stop-color="#BF1F81"/><stop offset="1" stop-color="#4D327C"/></linearGradient></defs></svg>