<svg width="291" height="219" fill="none" xmlns="http://www.w3.org/2000/svg"><rect x="82.875" y="14.939" width="52.816" height="52.816" rx="26.408" transform="rotate(10 82.875 14.94)" fill="#3FCBFF"/><path fill="#1F2229" d="m86.854 38.843 4.217.744-1.363 7.731-4.217-.743zM94.586 40.206l4.217.744-1.363 7.731-4.217-.743zM102.813 38.758l4.217.744-2.355 13.355-4.217-.744zM111.66 33.795l4.217.744-4.586 26.006-4.217-.743zM118.277 41.484l4.217.744-2.355 13.355-4.217-.744z"/><path d="M132.973 51.417c-2.454 13.92 6.84 27.193 20.759 29.647l45.187 7.968c13.92 2.455 27.193-6.84 29.647-20.759l.284-1.608c2.454-13.92-6.84-27.193-20.759-29.647l-45.188-7.968c-13.919-2.454-27.192 6.84-29.646 20.76l-.284 1.607Z" fill="#FF4A9C"/><path d="M225.896 66.973c2.259-12.81-6.295-25.026-19.105-27.285l-39.362-6.94c-12.81-2.26-25.026 6.294-27.285 19.105-2.259 12.81 6.295 25.026 19.105 27.285l39.362 6.94c12.811 2.26 25.027-6.294 27.285-19.105Z" fill="url('#paint0_linear_76_5869')"/><rect x="140.016" y="27.914" width="47.106" height="47.106" rx="23.553" transform="rotate(10 140.016 27.914)" fill="#1F2229"/><path d="m151.509 44.284 7.732 1.363-.626 3.552-7.732-1.363.626-3.552Zm-4.192 18.98-3.988-.703 3.372-19.125 3.989.703-3.373 19.125ZM162.745 62.324l2.568.453c1.995.351 3.408-.47 3.74-2.357.439-2.486-1.074-3.174-2.713-3.463l-2.569-.453.569-3.225 2.978.525c4.672.824 6.069 3.606 5.423 7.267-.544 3.088-2.754 6.19-7.78 5.304l-2.842-.5.626-3.551Zm10.533-14.202-.626 3.552-7.787-1.373.626-3.552 7.787 1.373Zm-15.967 16.904 3.372-19.124 3.989.703L161.3 65.73l-3.989-.704Z" fill="#fff"/><rect x="47.256" y="64.887" width="151.128" height="52.816" rx="26.408" transform="rotate(10 47.256 64.887)" fill="#fff"/><rect x="50.282" y="68.805" width="95.174" height="46.346" rx="23.173" transform="rotate(10 50.282 68.805)" fill="#1F2229"/><path d="m67.402 84.584-6.654 4.66 3.942 5.632-5.631 3.945 4.66 6.654 12.287-8.603-8.604-12.288Z" fill="#FF4F12"/><path d="m81.262 90.457 2.796.493.665 9.287s.062 1.068.073 1.591c.19-.486.616-1.49.616-1.49l3.86-8.468 2.736.482.73 9.278s.058 1.088.07 1.61c.189-.485.612-1.469.612-1.469l3.802-8.5 2.795.494-6.367 13.399-2.856-.504-.832-10.685-4.436 9.756-2.857-.504-1.407-14.77Zm17.884 17.676 2.534.446 1.759-9.979-2.533-.447-1.76 9.98Zm11.965 2.108 2.533.446 1.199-6.799c.365-2.072-.758-3.701-2.891-4.078-1.447-.255-2.766.281-3.713 1.295l.284-1.609-2.534-.446-1.759 9.979 2.533.447.894-5.071c.295-1.669 1.483-2.641 2.811-2.407 1.408.248 1.887 1.184 1.657 2.491l-1.015 5.753.001-.001Zm7.295-13.236-2.484 14.084 2.534.447.692-3.923.894-.611 2.154 5.192 2.918.514-2.995-7.145 4.27-2.918-3.139-.553-3.57 2.482 1.256-7.121-2.532-.447h.002Zm-16.932-4.048.816 1.166-1.166.816.966 1.377 2.54-1.78-1.778-2.542-1.378.963Z" fill="#fff"/><path d="M143.048 108.859c2.206-12.515 14.14-20.87 26.655-18.664 12.514 2.207 20.871 14.14 18.664 26.655-2.207 12.514-14.141 20.871-26.655 18.664-12.515-2.207-20.871-14.141-18.664-26.655Z" fill="#1F2229"/><path d="m178.595 115.191-21.602 7.936 4.017-22.783 17.585 14.847Z" fill="#fff"/><rect width="52.816" height="52.816" rx="26.408" transform="scale(1 -1) rotate(-10 -726.043 -1156.122)" fill="#37C9FF"/><path fill-rule="evenodd" clip-rule="evenodd" d="m225.242 105.954-4.218-.743-2.554 14.488-14.39-2.537-.743 4.218 14.389 2.537-2.527 14.329 4.218.744 2.526-14.33 14.429 2.545.744-4.218-14.429-2.544 2.555-14.489Z" fill="#1F2229"/><path d="M59.622 150.413c2.533-14.363 16.23-23.954 30.593-21.421 14.363 2.533 23.954 16.229 21.421 30.593-2.532 14.363-16.23 23.954-30.592 21.421-14.364-2.533-23.954-16.229-21.422-30.593Z" fill="#FF4A9C"/><path fill="#1F2229" d="m74.05 138.462 12.835 2.263-2.263 12.835-12.835-2.263zM71.356 153.743l12.835 2.263-2.263 12.835-12.835-2.263zM86.636 156.437l12.835 2.263-2.263 12.835-12.835-2.263z"/><path fill-rule="evenodd" clip-rule="evenodd" d="m97.413 142.582-3.514-.62-.838 4.753-4.452-.785-.62 3.514 4.452.785-.785 4.452 3.514.62.785-4.452 4.753.838.62-3.514-4.753-.838.838-4.753Z" fill="#1F2229"/><path d="M114.448 160.081c-2.533 14.363 7.058 28.06 21.421 30.592l43.579 7.684c14.364 2.533 28.061-7.058 30.593-21.421 2.533-14.363-7.058-28.06-21.421-30.593l-43.579-7.684c-14.364-2.532-28.06 7.058-30.593 21.422Z" fill="#37C9FF"/><path d="M203.759 175.575c2.258-12.811-6.295-25.027-19.106-27.286l-40.065-7.064c-12.81-2.259-25.026 6.295-27.285 19.105-2.259 12.811 6.295 25.027 19.105 27.286l40.065 7.064c12.811 2.259 25.027-6.295 27.286-19.105Z" fill="url('#paint1_linear_76_5869')"/><rect x="164.972" y="144.819" width="47.106" height="47.106" rx="23.553" transform="rotate(10 164.972 144.819)" fill="#1F2229"/><path fill-rule="evenodd" clip-rule="evenodd" d="M183.023 163.994a5.49 5.49 0 0 1-10.815-1.907 5.491 5.491 0 1 1 10.815 1.907Zm13.115 18.729a5.49 5.49 0 0 1-6.361 4.455 5.493 5.493 0 0 1 1.908-10.816 5.49 5.49 0 0 1 4.453 6.361Zm-25.467-2.398 1.498 2.14 25.332-17.738-1.498-2.139-25.332 17.737Z" fill="#fff"/><defs><linearGradient id="paint0_linear_76_5869" x1="179.642" y1="59.429" x2="226.401" y2="68.308" gradientUnits="userSpaceOnUse"><stop stop-color="#E13583"/><stop offset="1" stop-color="#E13583" stop-opacity=".1"/></linearGradient><linearGradient id="paint1_linear_76_5869" x1="188.694" y1="172.918" x2="117.303" y2="160.33" gradientUnits="userSpaceOnUse"><stop stop-color="#00AAE9"/><stop offset="1" stop-color="#00AAE9" stop-opacity=".1"/></linearGradient></defs></svg>