<svg width="207" height="164" fill="none" xmlns="http://www.w3.org/2000/svg"><rect x="26.438" y=".061" width="52.816" height="52.816" rx="26.408" fill="#3FCBFF"/><path fill="#1F2229" d="M34.507 22.91h4.282v7.851h-4.282zM42.358 22.91h4.282v7.851h-4.282zM50.209 20.055h4.282v13.561h-4.282zM58.06 13.632h4.282V40.04H58.06zM65.911 20.055h4.282v13.561h-4.282z"/><path d="M82.11 27.286c0 14.134 11.457 25.591 25.591 25.591h45.884c14.134 0 25.592-11.457 25.592-25.591v-1.633c0-14.134-11.458-25.592-25.592-25.592h-45.884c-14.134 0-25.592 11.458-25.592 25.592v1.633Z" fill="#FF4A9C"/><path d="M176.322 26.47c0-13.009-10.545-23.554-23.553-23.554H112.8c-13.008 0-23.553 10.545-23.553 23.553 0 13.008 10.545 23.553 23.553 23.553h39.969c13.008 0 23.553-10.545 23.553-23.553Z" fill="url('#paint0_linear_188_354')"/><rect x="84.964" y="2.916" width="47.106" height="47.106" rx="23.553" fill="#1F2229"/><path d="M99.125 17.042h7.851v3.606h-7.85v-3.606Zm-.832 19.42h-4.05v-19.42h4.05v19.42ZM113.323 32.856h2.608c2.025 0 3.274-1.054 3.274-2.97 0-2.524-1.61-2.939-3.274-2.939h-2.608v-3.274h3.024c4.744 0 6.602 2.497 6.602 6.214 0 3.136-1.636 6.575-6.741 6.575h-2.885v-3.606Zm7.906-15.814v3.606h-7.906v-3.606h7.906Zm-12.789 19.42v-19.42h4.051v19.42h-4.051Z" fill="#fff"/><rect x=".033" y="55.435" width="151.128" height="52.816" rx="26.408" fill="#fff"/><rect x="3.694" y="58.769" width="95.174" height="46.346" rx="23.173" fill="#1F2229"/><path d="m23.294 71.335-5.745 5.744 4.861 4.863-4.86 4.862 5.744 5.744L33.9 81.942 23.294 71.335Z" fill="#FF4F12"/><path d="M37.963 74.712h2.839l2.268 9.03s.246 1.041.348 1.554c.102-.51.348-1.574.348-1.574l2.33-9.01h2.779l2.33 9.01s.246 1.062.348 1.574c.102-.51.348-1.554.348-1.554l2.268-9.03h2.839l-3.944 14.301h-2.9l-2.675-10.377-2.675 10.377h-2.9l-3.95-14.3Zm20.682 14.301h2.572V78.88h-2.572v10.133Zm12.148-.001h2.573v-6.905c0-2.104-1.39-3.513-3.555-3.513-1.47 0-2.675.756-3.432 1.92V78.88h-2.572v10.133h2.572v-5.148c0-1.696 1.001-2.86 2.35-2.86 1.43 0 2.064.84 2.064 2.167v5.841-.001ZM75.68 74.71v14.302h2.573v-3.984l.775-.757 3.023 4.739h2.962l-4.19-6.516 3.698-3.616h-3.187l-3.084 3.065v-7.23h-2.572l.002-.002Zm-17.377-1.046 1.006 1.006-1.006 1.006 1.19 1.189 2.192-2.195-2.192-2.194-1.19 1.188Z" fill="#fff"/><path d="M102.005 82.105c0-12.708 10.302-23.01 23.01-23.01 12.707 0 23.009 10.302 23.009 23.01 0 12.708-10.302 23.009-23.009 23.009-12.708 0-23.01-10.301-23.01-23.009Z" fill="#1F2229"/><path d="m138.112 82.168-19.896 11.567V70.601l19.896 11.567Z" fill="#fff"/><rect width="52.816" height="52.816" rx="26.408" transform="matrix(1 0 0 -1 154.016 108.252)" fill="#37C9FF"/><path fill-rule="evenodd" clip-rule="evenodd" d="M182.446 64.972h-4.282v14.712h-14.611v4.283h14.611v14.55h4.282v-14.55h14.652v-4.283h-14.652V64.972Z" fill="#1F2229"/><path d="M27.063 137.515c0-14.585 11.824-26.408 26.409-26.408 14.584 0 26.408 11.823 26.408 26.408s-11.824 26.408-26.408 26.408c-14.585 0-26.409-11.823-26.409-26.408Z" fill="#FF4A9C"/><path fill="#1F2229" d="M39.197 123.24H52.23v13.033H39.197zM39.197 138.756H52.23v13.033H39.197zM54.713 138.756h13.033v13.033H54.713z"/><path fill-rule="evenodd" clip-rule="evenodd" d="M62.92 123.24h-3.569v4.826h-4.52v3.569h4.52v4.52h3.569v-4.52h4.826v-3.569H62.92v-4.826Z" fill="#1F2229"/><path d="M82.735 137.515c0 14.585 11.823 26.408 26.408 26.408h44.251c14.585 0 26.409-11.823 26.409-26.408s-11.824-26.408-26.409-26.408h-44.251c-14.585 0-26.408 11.823-26.408 26.408Z" fill="#37C9FF"/><path d="M173.379 137.265c0-13.008-10.545-23.553-23.553-23.553h-40.683c-13.008 0-23.553 10.545-23.553 23.553 0 13.008 10.545 23.553 23.553 23.553h40.683c13.008 0 23.553-10.545 23.553-23.553Z" fill="url('#paint1_linear_188_354')"/><rect x="129.841" y="113.712" width="47.106" height="47.106" rx="23.553" fill="#1F2229"/><path fill-rule="evenodd" clip-rule="evenodd" d="M150.948 129.46a5.492 5.492 0 1 1-10.984-.002 5.492 5.492 0 0 1 10.984.002Zm16.168 16.168a5.491 5.491 0 1 1-10.983.001 5.491 5.491 0 0 1 10.983-.001Zm-25.497 2.06 1.847 1.848 21.867-21.868-1.847-1.845-21.867 21.865Z" fill="#fff"/><defs><linearGradient id="paint0_linear_188_354" x1="129.46" y1="27.071" x2="177.05" y2="27.696" gradientUnits="userSpaceOnUse"><stop stop-color="#E13583"/><stop offset="1" stop-color="#E13583" stop-opacity=".1"/></linearGradient><linearGradient id="paint1_linear_188_354" x1="158.082" y1="137.265" x2="85.59" y2="137.265" gradientUnits="userSpaceOnUse"><stop stop-color="#00AAE9"/><stop offset="1" stop-color="#00AAE9" stop-opacity=".1"/></linearGradient></defs></svg>