<svg width="18" height="18" fill="none" xmlns="http://www.w3.org/2000/svg"><g id="Group 2"><circle id="Oval" cx="9" cy="9" r="8.25" stroke="#000" stroke-width="1.375"/><g id="Group 17"><mask id="mask0_89_3" style="mask-type:luminance" maskUnits="userSpaceOnUse" x="3" y="2" width="13" height="13"><path id="Mask" fill="#fff" d="M3.788 2.813h11.358v11.358H3.788z"/></mask><g mask="url('#mask0_89_3')"><g id="Group 17_2"><g id="Group 3"><mask id="mask1_89_3" style="mask-type:luminance" maskUnits="userSpaceOnUse" x="4" y="6" width="5" height="8"><path id="Clip 2" fill-rule="evenodd" clip-rule="evenodd" d="M4.27 6.8h3.91v6.264H4.27V6.8Z" fill="#fff"/></mask><g mask="url('#mask1_89_3')"><path id="Fill 1" fill-rule="evenodd" clip-rule="evenodd" d="M8.18 7.282V6.84a3.259 3.259 0 0 0-.463-.04 3.44 3.44 0 0 0-1.972 6.264A3.437 3.437 0 0 1 8.18 7.282Z" fill="#25F4EE"/></g></g><path id="Fill 4" fill-rule="evenodd" clip-rule="evenodd" d="M8.264 12.292a1.573 1.573 0 0 0 1.57-1.504v-7.5h1.37a2.582 2.582 0 0 1-.04-.475H9.29v7.493a1.573 1.573 0 0 1-1.57 1.515 1.594 1.594 0 0 1-.724-.182c.294.408.766.65 1.268.653Z" fill="#25F4EE"/><path id="Fill 6" fill-rule="evenodd" clip-rule="evenodd" d="M13.764 5.832v-.417c-.505 0-.998-.148-1.418-.428.368.429.866.725 1.418.845Z" fill="#25F4EE"/><path id="Fill 8" fill-rule="evenodd" clip-rule="evenodd" d="M12.346 4.988a2.581 2.581 0 0 1-.642-1.704h-.5c.131.7.544 1.316 1.142 1.704Z" fill="#FE2C55"/><path id="Fill 10" fill-rule="evenodd" clip-rule="evenodd" d="M7.717 8.674a1.573 1.573 0 0 0-.725 2.966 1.57 1.57 0 0 1 1.272-2.49c.158.001.314.026.464.072V7.315a3.315 3.315 0 0 0-.464-.036h-.083v1.45a1.603 1.603 0 0 0-.464-.055Z" fill="#FE2C55"/><g id="Group 14"><mask id="mask2_89_3" style="mask-type:luminance" maskUnits="userSpaceOnUse" x="5" y="5" width="10" height="10"><path id="Clip 13" fill-rule="evenodd" clip-rule="evenodd" d="M5.745 5.832h8.562v8.33H5.745v-8.33Z" fill="#fff"/></mask><g mask="url('#mask2_89_3')"><path id="Fill 12" fill-rule="evenodd" clip-rule="evenodd" d="M13.764 5.832v1.45a4.448 4.448 0 0 1-2.6-.845v3.81a3.448 3.448 0 0 1-3.447 3.44 3.414 3.414 0 0 1-1.972-.623 3.44 3.44 0 0 0 5.96-2.342V6.923c.758.544 1.669.836 2.602.834V5.89c-.183 0-.365-.02-.543-.058Z" fill="#FE2C55"/></g></g><path id="Fill 15" fill-rule="evenodd" clip-rule="evenodd" d="M11.164 10.248v-3.81a4.448 4.448 0 0 0 2.603.833v-1.45a2.596 2.596 0 0 1-1.42-.833 2.596 2.596 0 0 1-1.143-1.704h-1.37v7.504a1.573 1.573 0 0 1-2.846.859 1.573 1.573 0 0 1 .725-2.965c.158.001.314.025.464.072v-1.45a3.437 3.437 0 0 0-2.436 5.8 3.41 3.41 0 0 0 1.976.584 3.448 3.448 0 0 0 3.447-3.44Z" fill="#000"/></g></g></g></g></svg>