<svg width="22" height="22" fill="none" xmlns="http://www.w3.org/2000/svg"><g id="32px/wink_1000-100"><path id="logo_wink copy" fill-rule="evenodd" clip-rule="evenodd" d="m3.865 6.795.076-.086 4.485-4.426a.766.766 0 0 1 1.076 0l8.282 8.17c.305.3.305.792 0 1.091l-8.282 8.173a.766.766 0 0 1-1.076 0L3.941 15.29a.766.766 0 0 1 0-1.09l3.241-3.202-3.241-3.2a.766.766 0 0 1-.076-1.004ZM16.155 11 8.965 3.904l-3.396 3.35 3.244 3.2a.766.766 0 0 1 .076 1.004l-.076.086-3.244 3.2 3.396 3.35L16.156 11Z" fill="#FF4F12"/></g></svg>