<svg width="207" height="164" viewBox="0 0 207 164" fill="none" xmlns="http://www.w3.org/2000/svg">
<rect x="26.4379" y="0.0610352" width="52.8164" height="52.8164" rx="26.4082" fill="#3FCBFF"/>
<rect x="34.507" y="22.9105" width="4.28241" height="7.85108" fill="#1F2229"/>
<rect x="42.3581" y="22.9105" width="4.28241" height="7.85108" fill="#1F2229"/>
<rect x="50.2092" y="20.0555" width="4.28241" height="13.561" fill="#1F2229"/>
<rect x="58.0603" y="13.632" width="4.28241" height="26.4082" fill="#1F2229"/>
<rect x="65.9113" y="20.0555" width="4.28241" height="13.561" fill="#1F2229"/>
<path d="M82.1092 27.2857C82.1092 41.4197 93.567 52.8774 107.701 52.8774L153.585 52.8774C167.719 52.8774 179.177 41.4196 179.177 27.2857L179.177 25.6528C179.177 11.5189 167.719 0.0610809 153.585 0.0610809L107.701 0.0610809C93.567 0.0610809 82.1092 11.5189 82.1092 25.6528L82.1092 27.2857Z" fill="#FF4A9C"/>
<path d="M176.322 26.4693C176.322 13.4612 165.777 2.91602 152.769 2.91602L112.8 2.91602C99.7917 2.91602 89.2465 13.4612 89.2465 26.4693C89.2465 39.4774 99.7917 50.0225 112.8 50.0225H152.769C165.777 50.0225 176.322 39.4774 176.322 26.4693Z" fill="url(#paint0_linear_188_354)"/>
<rect x="84.9641" y="2.91602" width="47.1065" height="47.1065" rx="23.5532" fill="#1F2229"/>
<path d="M99.1251 17.0419L106.976 17.0419L106.976 20.6485H99.1251L99.1251 17.0419ZM98.2929 36.4615H94.2427L94.2427 17.0419H98.2929L98.2929 36.4615Z" fill="white"/>
<path d="M113.323 32.8565H115.931C117.956 32.8565 119.205 31.8017 119.205 29.8867C119.205 27.3621 117.595 26.9471 115.931 26.9471H113.323L113.323 23.6725H116.347C121.091 23.6725 122.949 26.17 122.949 29.8867C122.949 33.0225 121.313 36.4615 116.208 36.4615H113.323L113.323 32.8565ZM121.229 17.0419L121.229 20.6485H113.323L113.323 17.0419L121.229 17.0419ZM108.44 36.4615L108.44 17.0419H112.491L112.491 36.4615H108.44Z" fill="white"/>
<rect x="0.0332947" y="55.4353" width="151.128" height="52.8164" rx="26.4082" fill="white"/>
<rect x="3.69388" y="58.7686" width="95.174" height="46.3457" rx="23.1729" fill="#1F2229"/>
<path d="M23.2939 71.3345L17.5493 77.079L22.4101 81.9415L17.5493 86.8039L23.2939 92.5484L33.9008 81.9415L23.2939 71.3345Z" fill="#FF4F12"/>
<path d="M37.9631 74.7122L40.8019 74.7122L43.0699 83.7424C43.0699 83.7424 43.3159 84.7835 43.418 85.2957C43.5201 84.7852 43.7662 83.7223 43.7662 83.7223L46.0962 74.7122L48.8747 74.7122L51.2046 83.7223C51.2046 83.7223 51.4507 84.7835 51.5528 85.2957C51.6549 84.7852 51.901 83.7424 51.901 83.7424L54.169 74.7122L57.0078 74.7122L53.0643 89.0133L50.1635 89.0133L47.4888 78.6356L44.814 89.0133L41.9133 89.0133L37.9631 74.7122ZM58.6448 89.0133L61.2174 89.0133L61.2174 78.88L58.6448 78.88L58.6448 89.0133ZM70.7933 89.0116L73.366 89.0116L73.366 82.1071C73.366 80.0031 71.9767 78.5938 69.8108 78.5938C68.3412 78.5938 67.136 79.3503 66.3795 80.5136L66.3795 78.88L63.8068 78.88L63.8068 89.0133L66.3795 89.0133L66.3795 83.8646C66.3795 82.169 67.3804 81.0057 68.7295 81.0057C70.159 81.0057 70.7933 81.8443 70.7933 83.1716L70.7933 89.0133L70.7933 89.0116ZM75.6792 74.7105L75.6792 89.0116L78.2519 89.0116L78.2519 85.0279L79.0268 84.2713L82.0498 89.0099L85.0124 89.0099L80.8229 82.4938L84.5203 78.8783L81.3334 78.8783L78.2485 81.9431L78.2485 74.7122L75.6775 74.7122L75.6792 74.7105ZM58.3016 73.6644L59.3076 74.6703L58.3016 75.6763L59.4917 76.8647L61.6844 74.6703L59.4917 72.476L58.3016 73.6644Z" fill="white"/>
<path d="M102.005 82.1051C102.005 69.3975 112.307 59.0959 125.015 59.0959C137.722 59.0959 148.024 69.3975 148.024 82.1051C148.024 94.8126 137.722 105.114 125.015 105.114C112.307 105.114 102.005 94.8126 102.005 82.1051Z" fill="#1F2229"/>
<path d="M138.112 82.1679L118.216 93.7353L118.216 70.6006L138.112 82.1679Z" fill="white"/>
<rect width="52.8164" height="52.8164" rx="26.4082" transform="matrix(1 0 5.86991e-08 -1 154.016 108.252)" fill="#37C9FF"/>
<path fill-rule="evenodd" clip-rule="evenodd" d="M182.446 64.9717H178.164L178.164 79.6842L163.553 79.6842L163.553 83.9666H178.164L178.164 98.5172H182.446L182.446 83.9666H197.098L197.098 79.6842L182.446 79.6842L182.446 64.9717Z" fill="#1F2229"/>
<path d="M27.0633 137.515C27.0633 122.93 38.8867 111.107 53.4715 111.107C68.0563 111.107 79.8797 122.93 79.8797 137.515C79.8797 152.1 68.0563 163.923 53.4715 163.923C38.8867 163.923 27.0633 152.1 27.0633 137.515Z" fill="#FF4A9C"/>
<rect x="39.1968" y="123.24" width="13.0334" height="13.0334" fill="#1F2229"/>
<rect x="39.1968" y="138.756" width="13.0334" height="13.0334" fill="#1F2229"/>
<rect x="54.7128" y="138.756" width="13.0334" height="13.0334" fill="#1F2229"/>
<path fill-rule="evenodd" clip-rule="evenodd" d="M62.92 123.24L59.3513 123.24L59.3513 128.066L54.831 128.066L54.831 131.635L59.3513 131.635L59.3513 136.155L62.92 136.155L62.92 131.635L67.7462 131.635L67.7462 128.066L62.92 128.066L62.92 123.24Z" fill="#1F2229"/>
<path d="M82.7347 137.515C82.7347 152.1 94.558 163.923 109.143 163.923H153.394C167.979 163.923 179.803 152.1 179.803 137.515C179.803 122.93 167.979 111.107 153.394 111.107H109.143C94.558 111.107 82.7347 122.93 82.7347 137.515Z" fill="#37C9FF"/>
<path d="M173.379 137.265C173.379 124.257 162.834 113.712 149.826 113.712L109.143 113.712C96.1348 113.712 85.5896 124.257 85.5896 137.265C85.5896 150.273 96.1347 160.818 109.143 160.818H149.826C162.834 160.818 173.379 150.273 173.379 137.265Z" fill="url(#paint1_linear_188_354)"/>
<rect x="129.841" y="113.712" width="47.1065" height="47.1065" rx="23.5532" fill="#1F2229"/>
<path fill-rule="evenodd" clip-rule="evenodd" d="M150.948 129.46C150.948 132.492 148.489 134.951 145.456 134.951C142.424 134.951 139.966 132.492 139.966 129.46C139.966 126.426 142.424 123.968 145.456 123.968C148.489 123.968 150.948 126.426 150.948 129.46ZM167.116 145.628C167.116 148.661 164.658 151.12 161.625 151.12C158.592 151.12 156.134 148.661 156.134 145.628C156.134 142.596 158.592 140.137 161.625 140.137C164.658 140.137 167.116 142.596 167.116 145.628ZM141.619 147.688L143.466 149.536L165.333 127.668L163.486 125.823L141.619 147.688Z" fill="white"/>
<defs>
<linearGradient id="paint0_linear_188_354" x1="129.46" y1="27.0714" x2="177.05" y2="27.6962" gradientUnits="userSpaceOnUse">
<stop stop-color="#E13583"/>
<stop offset="1" stop-color="#E13583" stop-opacity="0.1"/>
</linearGradient>
<linearGradient id="paint1_linear_188_354" x1="158.082" y1="137.265" x2="85.5896" y2="137.265" gradientUnits="userSpaceOnUse">
<stop stop-color="#00AAE9"/>
<stop offset="1" stop-color="#00AAE9" stop-opacity="0.1"/>
</linearGradient>
</defs>
</svg>
