<svg width="291" height="219" viewBox="0 0 291 219" fill="none" xmlns="http://www.w3.org/2000/svg">
<rect x="82.875" y="14.9392" width="52.8164" height="52.8164" rx="26.4082" transform="rotate(10 82.875 14.9392)" fill="#3FCBFF"/>
<rect x="86.8538" y="38.8427" width="4.28241" height="7.85108" transform="rotate(10 86.8538 38.8427)" fill="#1F2229"/>
<rect x="94.5856" y="40.206" width="4.28241" height="7.85108" transform="rotate(10 94.5856 40.206)" fill="#1F2229"/>
<rect x="102.813" y="38.7578" width="4.28241" height="13.561" transform="rotate(10 102.813 38.7578)" fill="#1F2229"/>
<rect x="111.66" y="33.795" width="4.28241" height="26.4082" transform="rotate(10 111.66 33.795)" fill="#1F2229"/>
<rect x="118.277" y="41.4844" width="4.28241" height="13.561" transform="rotate(10 118.277 41.4844)" fill="#1F2229"/>
<path d="M132.973 51.4175C130.519 65.3367 139.813 78.61 153.732 81.0644L198.919 89.0321C212.839 91.4865 226.112 82.1924 228.566 68.2732L228.85 66.665C231.304 52.7458 222.01 39.4725 208.091 37.0182L162.903 29.0504C148.984 26.5961 135.711 35.8902 133.257 49.8094L132.973 51.4175Z" fill="#FF4A9C"/>
<path d="M225.896 66.9733C228.155 54.1628 219.601 41.9467 206.791 39.6879L167.429 32.7473C154.619 30.4885 142.403 39.0423 140.144 51.8528C137.885 64.6633 146.439 76.8793 159.249 79.1382L198.611 86.0787C211.422 88.3376 223.638 79.7838 225.896 66.9733Z" fill="url(#paint0_linear_76_5869)"/>
<rect x="140.016" y="27.9138" width="47.1065" height="47.1065" rx="23.5532" transform="rotate(10 140.016 27.9138)" fill="#1F2229"/>
<path d="M151.509 44.284L159.241 45.6473L158.615 49.1991L150.883 47.8358L151.509 44.284ZM147.317 63.2641L143.329 62.5608L146.701 43.4362L150.69 44.1395L147.317 63.2641Z" fill="white"/>
<path d="M162.745 62.3238L165.313 62.7766C167.308 63.1283 168.721 62.3064 169.053 60.4205C169.492 57.9342 167.979 57.2461 166.34 56.9571L163.771 56.5042L164.34 53.2794L167.318 53.8045C171.99 54.6283 173.387 57.4105 172.741 61.0708C172.197 64.1589 169.987 67.2615 164.961 66.3751L162.119 65.8741L162.745 62.3238ZM173.278 48.1224L172.652 51.6742L164.865 50.3012L165.491 46.7494L173.278 48.1224ZM157.311 65.0262L160.683 45.9016L164.672 46.6049L161.3 65.7296L157.311 65.0262Z" fill="white"/>
<rect x="47.256" y="64.8871" width="151.128" height="52.8164" rx="26.4082" transform="rotate(10 47.256 64.8871)" fill="white"/>
<rect x="50.2821" y="68.8053" width="95.174" height="46.3457" rx="23.1729" transform="rotate(10 50.2821 68.8053)" fill="#1F2229"/>
<path d="M67.4023 84.5838L60.7475 89.2435L64.69 94.8761L59.0588 98.8206L63.7185 105.475L76.0062 96.8715L67.4023 84.5838Z" fill="#FF4F12"/>
<path d="M81.2621 90.4575L84.0578 90.9504L84.7232 100.237C84.7232 100.237 84.7848 101.305 84.7964 101.828C84.9856 101.342 85.4125 100.338 85.4125 100.338L89.2716 91.8698L92.0079 92.3523L92.7379 101.63C92.7379 101.63 92.7959 102.718 92.8075 103.24C92.9968 102.755 93.4201 101.771 93.4201 101.771L97.2218 93.2716L100.017 93.7646L93.6505 107.164L90.7938 106.66L89.9618 95.9754L85.5256 105.731L82.6689 105.227L81.2621 90.4575ZM99.1462 108.133L101.68 108.579L103.439 98.6001L100.906 98.1533L99.1462 108.133ZM111.111 110.241L113.644 110.687L114.843 103.888C115.208 101.816 114.085 100.187 111.952 99.8104C110.505 99.5552 109.186 100.091 108.239 101.105L108.523 99.4964L105.989 99.0497L104.23 109.029L106.763 109.476L107.657 104.405C107.952 102.736 109.14 101.764 110.468 101.998C111.876 102.246 112.355 103.182 112.125 104.489L111.11 110.242L111.111 110.241ZM118.406 97.0052L115.922 111.089L118.456 111.536L119.148 107.613L120.042 107.002L122.196 112.194L125.114 112.708L122.119 105.563L126.389 102.645L123.25 102.092L119.68 104.574L120.936 97.453L118.404 97.0065L118.406 97.0052ZM101.474 92.9574L102.29 94.1227L101.124 94.9387L102.09 96.3157L104.63 94.5355L102.852 91.9937L101.474 92.9574Z" fill="white"/>
<path d="M143.048 108.859C145.254 96.3444 157.188 87.9882 169.703 90.1948C182.217 92.4015 190.574 104.335 188.367 116.85C186.16 129.364 174.226 137.721 161.712 135.514C149.197 133.307 140.841 121.373 143.048 108.859Z" fill="#1F2229"/>
<path d="M178.595 115.191L156.993 123.127L161.01 100.344L178.595 115.191Z" fill="white"/>
<rect width="52.8164" height="52.8164" rx="26.4082" transform="matrix(0.984808 0.173648 0.173648 -0.984808 189.728 143.64)" fill="#37C9FF"/>
<path fill-rule="evenodd" clip-rule="evenodd" d="M225.242 105.954L221.024 105.211L218.47 119.699L204.08 117.162L203.337 121.38L217.726 123.917L215.199 138.246L219.417 138.99L221.943 124.66L236.372 127.205L237.116 122.987L222.687 120.443L225.242 105.954Z" fill="#1F2229"/>
<path d="M59.6224 150.413C62.155 136.05 75.8518 126.459 90.2151 128.992C104.578 131.525 114.169 145.221 111.636 159.585C109.104 173.948 95.4069 183.539 81.0436 181.006C66.6804 178.473 57.0898 164.777 59.6224 150.413Z" fill="#FF4A9C"/>
<rect x="74.0503" y="138.462" width="13.0334" height="13.0334" transform="rotate(10 74.0503 138.462)" fill="#1F2229"/>
<rect x="71.356" y="153.743" width="13.0334" height="13.0334" transform="rotate(10 71.356 153.743)" fill="#1F2229"/>
<rect x="86.6362" y="156.437" width="13.0334" height="13.0334" transform="rotate(10 86.6362 156.437)" fill="#1F2229"/>
<path fill-rule="evenodd" clip-rule="evenodd" d="M97.4131 142.582L93.8987 141.962L93.0606 146.715L88.6089 145.93L87.9892 149.444L92.4409 150.229L91.656 154.681L95.1704 155.301L95.9554 150.849L100.708 151.687L101.328 148.173L96.5751 147.335L97.4131 142.582Z" fill="#1F2229"/>
<path d="M114.448 160.081C111.915 174.444 121.506 188.141 135.869 190.673L179.448 198.357C193.812 200.89 207.509 191.299 210.041 176.936C212.574 162.573 202.983 148.876 188.62 146.343L145.041 138.659C130.677 136.127 116.981 145.717 114.448 160.081Z" fill="#37C9FF"/>
<path d="M203.759 175.575C206.017 162.764 197.464 150.548 184.653 148.289L144.588 141.225C131.778 138.966 119.562 147.52 117.303 160.33C115.044 173.141 123.598 185.357 136.408 187.616L176.473 194.68C189.284 196.939 201.5 188.385 203.759 175.575Z" fill="url(#paint1_linear_76_5869)"/>
<rect x="164.972" y="144.819" width="47.1065" height="47.1065" rx="23.5532" transform="rotate(10 164.972 144.819)" fill="#1F2229"/>
<path fill-rule="evenodd" clip-rule="evenodd" d="M183.023 163.994C182.497 166.979 179.649 168.974 176.662 168.447C173.676 167.921 171.682 165.072 172.208 162.087C172.735 159.099 175.583 157.104 178.569 157.631C181.556 158.158 183.55 161.006 183.023 163.994ZM196.138 182.723C195.612 185.711 192.764 187.705 189.777 187.178C186.79 186.652 184.796 183.804 185.323 180.816C185.85 177.83 188.698 175.836 191.685 176.362C194.671 176.889 196.665 179.737 196.138 182.723ZM170.671 180.325L172.169 182.465L197.501 164.727L196.003 162.588L170.671 180.325Z" fill="white"/>
<defs>
<linearGradient id="paint0_linear_76_5869" x1="179.642" y1="59.4288" x2="226.401" y2="68.3081" gradientUnits="userSpaceOnUse">
<stop stop-color="#E13583"/>
<stop offset="1" stop-color="#E13583" stop-opacity="0.1"/>
</linearGradient>
<linearGradient id="paint1_linear_76_5869" x1="188.694" y1="172.918" x2="117.303" y2="160.33" gradientUnits="userSpaceOnUse">
<stop stop-color="#00AAE9"/>
<stop offset="1" stop-color="#00AAE9" stop-opacity="0.1"/>
</linearGradient>
</defs>
</svg>
