<svg width="97" height="96" viewBox="0 0 97 96" fill="none" xmlns="http://www.w3.org/2000/svg">
<g id="icons_WB-96">
<path id="Vector" d="M27.5 12H69.5C77.784 12 84.5 18.716 84.5 27V69C84.5 77.284 77.784 84 69.5 84H27.5C19.216 84 12.5 77.284 12.5 69V27C12.5 18.716 19.216 12 27.5 12Z" fill="url(#paint0_linear_76_6170)"/>
<path id="Vector_2" d="M27.1519 61L20.5 35H24.8071L29.978 55.0508L35.4082 35H39.4684L45.0096 55.1805L50.0695 35H54.5L47.8481 61H42.8005L37.4938 41.5972L32.1995 61H27.1519Z" fill="#FEFEFE"/>
<path id="Vector_3" d="M76.5 53.6251C76.5 55.6989 75.7588 57.5005 74.3998 58.9262C72.9173 60.3519 71.1877 61 69.0999 61H58.5V35H68.2474C70.3476 35 72.0649 35.7777 73.4238 37.0738C74.9063 38.4995 75.524 40.1844 75.524 42.2453C75.524 44.5783 74.6592 46.2503 73.0532 47.5464C75.2646 48.7129 76.5 50.9163 76.5 53.6251ZM62.5645 39.005V45.8614H68.3586C70.0882 45.8614 71.4472 44.4357 71.4472 42.4915C71.4472 40.5474 70.0882 38.992 68.3586 38.992H62.5645V39.005ZM69.0999 57.1246C70.953 57.1246 72.4355 55.4397 72.4355 53.3789C72.4355 51.318 70.953 49.7498 69.0999 49.7498H62.5645V57.1246H69.0999Z" fill="#FEFEFE"/>
</g>
<defs>
<linearGradient id="paint0_linear_76_6170" x1="48.5" y1="12" x2="131.5" y2="12" gradientUnits="userSpaceOnUse">
<stop stop-color="#BF1F81"/>
<stop offset="1" stop-color="#4D327C"/>
</linearGradient>
</defs>
</svg>
