<svg width="96" height="96" viewBox="0 0 96 96" fill="none" xmlns="http://www.w3.org/2000/svg">
<g clip-path="url(#clip0_235_250)">
<path d="M12.031 42.2732C12.031 31.7056 12.031 26.4217 14.0876 22.3854C15.8966 18.835 18.7832 15.9484 22.3337 14.1394C26.3699 12.0828 31.6537 12.0828 42.2213 12.0828H53.3441C63.9115 12.0828 69.1953 12.0828 73.2318 14.1394C76.7821 15.9484 79.6691 18.835 81.478 22.3854C83.5342 26.4217 83.5342 31.7056 83.5342 42.2731V53.3959C83.5342 63.9636 83.5342 69.2474 81.478 73.2834C79.6691 76.8343 76.7821 79.7207 73.2318 81.5296C69.1953 83.5864 63.9115 83.5864 53.3441 83.5864H42.2213C31.6537 83.5864 26.3699 83.5864 22.3337 81.5296C18.7832 79.7207 15.8966 76.8343 14.0876 73.2834C12.031 69.2474 12.031 63.9636 12.031 53.3959V42.2732Z" fill="url(#paint0_linear_235_250)"/>
<path d="M31.7209 60.9548H26.7296L19.299 34.7141H23.84L29.3566 55.2194L35.3237 34.7141H39.3017L45.2313 55.2194L50.748 34.7141H55.289L47.8583 60.9548H42.8669L37.3128 41.7991L31.7209 60.9548ZM72.5883 47.3471C74.8774 48.5467 76.2662 50.7209 76.2662 53.4575C76.2662 55.5942 75.5155 57.3936 73.9767 58.8181C72.4378 60.2426 70.5991 60.9548 68.385 60.9548H57.1263V34.7141H67.5592C69.6984 34.7141 71.5371 35.4263 73.0009 36.8133C74.502 38.2004 75.2528 39.9248 75.2528 41.9865C75.2528 44.2732 74.352 46.0351 72.5883 47.3471ZM67.5592 38.7627H61.442V45.6602H67.5592C69.4729 45.6602 70.9368 44.1607 70.9368 42.2114C70.9368 40.2621 69.4729 38.7627 67.5592 38.7627ZM61.442 56.9063H68.385C70.3737 56.9063 71.9502 55.2943 71.9502 53.2325C71.9502 51.1708 70.3737 49.5588 68.385 49.5588H61.442V56.9063Z" fill="white"/>
</g>
<defs>
<linearGradient id="paint0_linear_235_250" x1="16.4989" y1="83.4895" x2="83.4438" y2="17.7105" gradientUnits="userSpaceOnUse">
<stop stop-color="#CB11AB"/>
<stop offset="1" stop-color="#481173"/>
</linearGradient>
<clipPath id="clip0_235_250">
<rect width="72" height="72" fill="white" transform="translate(12 12)"/>
</clipPath>
</defs>
</svg>
