<svg width="18" height="18" viewBox="0 0 18 18" fill="none" xmlns="http://www.w3.org/2000/svg">
<g id="Group 2">
<circle id="Oval" cx="9" cy="9" r="8.25" stroke="black" stroke-width="1.375"/>
<g id="Group 17">
<mask id="mask0_89_3" style="mask-type:luminance" maskUnits="userSpaceOnUse" x="3" y="2" width="13" height="13">
<rect id="Mask" x="3.78754" y="2.8125" width="11.3585" height="11.3585" fill="white"/>
</mask>
<g mask="url(#mask0_89_3)">
<g id="Group 17_2">
<g id="Group 3">
<mask id="mask1_89_3" style="mask-type:luminance" maskUnits="userSpaceOnUse" x="4" y="6" width="5" height="8">
<path id="Clip 2" fill-rule="evenodd" clip-rule="evenodd" d="M4.26923 6.79996H8.18094V13.0644H4.26923V6.79996Z" fill="white"/>
</mask>
<g mask="url(#mask1_89_3)">
<path id="Fill 1" fill-rule="evenodd" clip-rule="evenodd" d="M8.18091 7.28209V6.83984C8.02757 6.81555 7.87242 6.80214 7.7169 6.79996C6.21215 6.79706 4.88031 7.77184 4.42826 9.20699C3.97622 10.6425 4.50983 12.2049 5.74488 13.0644C4.81977 12.0737 4.56275 10.6327 5.08911 9.38353C5.6151 8.13471 6.82623 7.31182 8.18091 7.28209Z" fill="#25F4EE"/>
</g>
</g>
<path id="Fill 4" fill-rule="evenodd" clip-rule="evenodd" d="M8.26431 12.2919C9.10568 12.2908 9.79734 11.6281 9.83396 10.7878V3.28763H11.2042C11.1763 3.13066 11.1629 2.97188 11.1643 2.81274H9.2902V10.3057C9.25902 11.1503 8.56591 11.8192 7.72055 11.8206C7.46789 11.8184 7.21957 11.7565 6.99554 11.6394C7.2899 12.0472 7.76152 12.2897 8.26431 12.2919Z" fill="#25F4EE"/>
<path id="Fill 6" fill-rule="evenodd" clip-rule="evenodd" d="M13.7635 5.83209V5.41521C13.2592 5.41558 12.7662 5.26659 12.3461 4.98746C12.714 5.41558 13.2121 5.7121 13.7635 5.83209Z" fill="#25F4EE"/>
<path id="Fill 8" fill-rule="evenodd" clip-rule="evenodd" d="M12.346 4.98765C11.9324 4.51639 11.704 3.91065 11.7044 3.28387H11.2045C11.335 3.98423 11.7479 4.60049 12.346 4.98765Z" fill="#FE2C55"/>
<path id="Fill 10" fill-rule="evenodd" clip-rule="evenodd" d="M7.71704 8.6743C6.99493 8.67792 6.36816 9.17238 6.1967 9.87383C6.02523 10.5753 6.3533 11.3032 6.99203 11.6396C6.64584 11.1614 6.5969 10.53 6.86515 10.0047C7.13377 9.47942 7.67427 9.14882 8.26442 9.14918C8.42175 9.15099 8.57799 9.17564 8.72843 9.22168V7.31491C8.57473 7.29207 8.41957 7.27974 8.26442 7.27866H8.18105V8.72867C8.02988 8.68807 7.87364 8.66959 7.71704 8.6743Z" fill="#FE2C55"/>
<g id="Group 14">
<mask id="mask2_89_3" style="mask-type:luminance" maskUnits="userSpaceOnUse" x="5" y="5" width="10" height="10">
<path id="Clip 13" fill-rule="evenodd" clip-rule="evenodd" d="M5.74487 5.83209H14.3072V14.1619H5.74487V5.83209Z" fill="white"/>
</mask>
<g mask="url(#mask2_89_3)">
<path id="Fill 12" fill-rule="evenodd" clip-rule="evenodd" d="M13.7635 5.83209V7.28211C12.83 7.2803 11.9205 6.98486 11.1643 6.43748V10.2474C11.1603 12.1484 9.61787 13.6876 7.7169 13.6876C7.0111 13.6887 6.32198 13.4712 5.74487 13.0644C6.70769 14.0997 8.20628 14.4409 9.52253 13.9236C10.8388 13.4063 11.7041 12.1364 11.7044 10.7223V6.92323C12.4632 7.46699 13.3738 7.7588 14.3072 7.75699V5.89009C14.1245 5.88973 13.9422 5.87016 13.7635 5.83209Z" fill="#FE2C55"/>
</g>
</g>
<path id="Fill 15" fill-rule="evenodd" clip-rule="evenodd" d="M11.1644 10.2475V6.4376C11.9231 6.98172 12.8333 7.27354 13.7672 7.27136V5.82135C13.2154 5.70498 12.7166 5.41244 12.3461 4.98759C11.7476 4.60043 11.3351 3.98453 11.2042 3.28381H9.83398V10.7877C9.80643 11.4572 9.35837 12.0358 8.71674 12.2293C8.07547 12.4233 7.38164 12.1891 6.98832 11.6468C6.34959 11.3104 6.02152 10.5825 6.19335 9.88103C6.36445 9.17995 6.99122 8.68513 7.71333 8.68151C7.87066 8.68296 8.0269 8.70724 8.17733 8.75401V7.30399C6.81468 7.32719 5.59485 8.15298 5.06705 9.40905C4.5396 10.6655 4.80387 12.1148 5.7413 13.1041C6.32385 13.4977 7.01406 13.7015 7.71695 13.6877C9.61793 13.6877 11.1604 12.1485 11.1644 10.2475Z" fill="black"/>
</g>
</g>
</g>
</g>
</svg>
